<?xml version="1.0" encoding="utf-8"?>
<svg width="33.10205px" height="28.599976px" viewBox="0 0 33.10205 28.599976" version="1.1" xmlns:xlink="http://www.w3.org/1999/xlink" xmlns="http://www.w3.org/2000/svg">
  <g id="burgeur">
    <path d="M2.64715 0L22.43 0Q22.5601 0 22.6895 0.0127467Q22.8189 0.0254935 22.9464 0.0508642Q23.074 0.0762349 23.1984 0.113985Q23.3229 0.151736 23.443 0.201502Q23.5632 0.251269 23.6779 0.312572Q23.7926 0.373875 23.9007 0.446125Q24.0088 0.518375 24.1093 0.600875Q24.2099 0.683375 24.3018 0.775332Q24.3938 0.867288 24.4763 0.967815Q24.5588 1.06834 24.631 1.17647Q24.7033 1.2846 24.7646 1.39929Q24.8259 1.51398 24.8757 1.63413Q24.9254 1.75428 24.9632 1.87872Q25.0009 2.00317 25.0263 2.13071Q25.0517 2.25826 25.0644 2.38768Q25.0772 2.5171 25.0772 2.64715L25.0772 2.64915Q25.0772 2.77919 25.0644 2.90861Q25.0517 3.03803 25.0263 3.16558Q25.0009 3.29313 24.9632 3.41757Q24.9254 3.54202 24.8757 3.66217Q24.8259 3.78231 24.7646 3.897Q24.7033 4.01169 24.631 4.11982Q24.5588 4.22795 24.4763 4.32848Q24.3938 4.42901 24.3018 4.52096Q24.2099 4.61292 24.1093 4.69542Q24.0088 4.77792 23.9007 4.85017Q23.7926 4.92242 23.6779 4.98372Q23.5632 5.04503 23.443 5.09479Q23.3229 5.14456 23.1984 5.18231Q23.074 5.22006 22.9464 5.24543Q22.8189 5.2708 22.6895 5.28355Q22.5601 5.2963 22.43 5.2963L2.64715 5.2963Q2.5171 5.2963 2.38768 5.28355Q2.25826 5.2708 2.13072 5.24543Q2.00317 5.22006 1.87872 5.18231Q1.75428 5.14456 1.63413 5.09479Q1.51398 5.04503 1.39929 4.98372Q1.2846 4.92242 1.17647 4.85017Q1.06834 4.77792 0.967815 4.69542Q0.867288 4.61292 0.775332 4.52096Q0.683375 4.42901 0.600875 4.32848Q0.518375 4.22795 0.446125 4.11982Q0.373875 4.01169 0.312572 3.897Q0.251269 3.78231 0.201502 3.66217Q0.151736 3.54202 0.113985 3.41757Q0.0762349 3.29313 0.0508642 3.16558Q0.0254935 3.03803 0.0127467 2.90861Q0 2.77919 0 2.64915L0 2.64715Q0 2.5171 0.0127467 2.38768Q0.0254935 2.25826 0.0508642 2.13072Q0.0762349 2.00317 0.113985 1.87872Q0.151736 1.75428 0.201502 1.63413Q0.251269 1.51398 0.312572 1.39929Q0.373875 1.2846 0.446125 1.17647Q0.518375 1.06834 0.600875 0.967815Q0.683375 0.867288 0.775332 0.775332Q0.867288 0.683375 0.967815 0.600875Q1.06834 0.518375 1.17647 0.446125Q1.2846 0.373875 1.39929 0.312572Q1.51398 0.251269 1.63413 0.201502Q1.75428 0.151736 1.87872 0.113985Q2.00317 0.0762349 2.13071 0.0508642Q2.25826 0.0254935 2.38768 0.0127467Q2.5171 0 2.64715 0L2.64715 0Z" id="Rectangle-2" fill="#FFFFFF" fill-rule="evenodd" stroke="none" />
    <path d="M2.64715 11.6519L30.4547 11.6519Q30.5848 11.6519 30.7142 11.6646Q30.8436 11.6774 30.9711 11.7027Q31.0987 11.7281 31.2231 11.7658Q31.3476 11.8036 31.4677 11.8534Q31.5879 11.9031 31.7026 11.9644Q31.8173 12.0257 31.9254 12.098Q32.0335 12.1702 32.134 12.2527Q32.2346 12.3352 32.3265 12.4272Q32.4185 12.5191 32.501 12.6197Q32.5835 12.7202 32.6557 12.8283Q32.728 12.9365 32.7893 13.0511Q32.8506 13.1658 32.9003 13.286Q32.9501 13.4061 32.9879 13.5306Q33.0256 13.655 33.051 13.7826Q33.0764 13.9101 33.0891 14.0395Q33.1019 14.169 33.1019 14.299L33.1019 14.301Q33.1019 14.431 33.0891 14.5605Q33.0764 14.6899 33.051 14.8174Q33.0256 14.945 32.9879 15.0694Q32.9501 15.1939 32.9003 15.314Q32.8506 15.4342 32.7893 15.5489Q32.728 15.6635 32.6557 15.7717Q32.5835 15.8798 32.501 15.9803Q32.4185 16.0809 32.3265 16.1728Q32.2346 16.2648 32.134 16.3473Q32.0335 16.4298 31.9254 16.502Q31.8173 16.5743 31.7026 16.6356Q31.5879 16.6969 31.4677 16.7466Q31.3476 16.7964 31.2231 16.8342Q31.0987 16.8719 30.9711 16.8973Q30.8436 16.9227 30.7142 16.9354Q30.5848 16.9482 30.4547 16.9482L2.64715 16.9482Q2.5171 16.9482 2.38768 16.9354Q2.25826 16.9227 2.13072 16.8973Q2.00317 16.8719 1.87872 16.8342Q1.75428 16.7964 1.63413 16.7466Q1.51398 16.6969 1.39929 16.6356Q1.2846 16.5743 1.17647 16.502Q1.06834 16.4298 0.967815 16.3473Q0.867288 16.2648 0.775332 16.1728Q0.683375 16.0809 0.600875 15.9803Q0.518375 15.8798 0.446125 15.7717Q0.373875 15.6635 0.312572 15.5489Q0.251269 15.4342 0.201502 15.314Q0.151736 15.1939 0.113985 15.0694Q0.0762349 14.945 0.0508642 14.8174Q0.0254935 14.6899 0.0127467 14.5605Q0 14.431 0 14.301L0 14.299Q0 14.169 0.0127467 14.0395Q0.0254935 13.9101 0.0508642 13.7826Q0.0762349 13.655 0.113985 13.5306Q0.151736 13.4061 0.201502 13.286Q0.251269 13.1658 0.312572 13.0511Q0.373875 12.9365 0.446125 12.8283Q0.518375 12.7202 0.600875 12.6197Q0.683375 12.5191 0.775332 12.4272Q0.867288 12.3352 0.967815 12.2527Q1.06834 12.1702 1.17647 12.098Q1.2846 12.0257 1.39929 11.9644Q1.51398 11.9031 1.63413 11.8534Q1.75428 11.8036 1.87872 11.7658Q2.00317 11.7281 2.13071 11.7027Q2.25826 11.6774 2.38768 11.6646Q2.5171 11.6519 2.64715 11.6519Z" id="Rectangle-2-Copy" fill="#FFFFFF" fill-rule="evenodd" stroke="none" />
    <path d="M9.66863 23.3037L30.4546 23.3037Q30.5846 23.3037 30.714 23.3165Q30.8435 23.3292 30.971 23.3546Q31.0986 23.3799 31.223 23.4177Q31.3475 23.4554 31.4676 23.5052Q31.5877 23.555 31.7024 23.6163Q31.8171 23.6776 31.9253 23.7498Q32.0334 23.8221 32.1339 23.9046Q32.2344 23.9871 32.3264 24.079Q32.4184 24.171 32.5009 24.2715Q32.5834 24.3721 32.6556 24.4802Q32.7278 24.5883 32.7892 24.703Q32.8505 24.8177 32.9002 24.9378Q32.95 25.058 32.9877 25.1824Q33.0255 25.3069 33.0509 25.4344Q33.0762 25.562 33.089 25.6914Q33.1017 25.8208 33.1017 25.9509L33.1017 25.9529Q33.1017 26.0829 33.089 26.2123Q33.0762 26.3417 33.0509 26.4693Q33.0255 26.5968 32.9877 26.7213Q32.95 26.8457 32.9002 26.9659Q32.8505 27.086 32.7892 27.2007Q32.7278 27.3154 32.6556 27.4235Q32.5834 27.5317 32.5009 27.6322Q32.4184 27.7327 32.3264 27.8247Q32.2344 27.9166 32.1339 27.9991Q32.0334 28.0816 31.9253 28.1539Q31.8171 28.2261 31.7024 28.2874Q31.5877 28.3487 31.4676 28.3985Q31.3475 28.4483 31.223 28.486Q31.0986 28.5238 30.971 28.5491Q30.8435 28.5745 30.714 28.5873Q30.5846 28.6 30.4546 28.6L9.66863 28.6Q9.53859 28.6 9.40917 28.5873Q9.27975 28.5745 9.1522 28.5491Q9.02465 28.5238 8.90021 28.486Q8.77576 28.4483 8.65561 28.3985Q8.53546 28.3487 8.42077 28.2874Q8.30608 28.2261 8.19795 28.1539Q8.08983 28.0816 7.9893 27.9991Q7.88877 27.9166 7.79682 27.8247Q7.70486 27.7327 7.62236 27.6322Q7.53986 27.5317 7.46761 27.4235Q7.39536 27.3154 7.33406 27.2007Q7.27275 27.086 7.22299 26.9659Q7.17322 26.8457 7.13547 26.7213Q7.09772 26.5968 7.07235 26.4693Q7.04698 26.3417 7.03423 26.2123Q7.02148 26.0829 7.02148 25.9529L7.02148 25.9509Q7.02148 25.8208 7.03423 25.6914Q7.04698 25.562 7.07235 25.4344Q7.09772 25.3069 7.13547 25.1824Q7.17322 25.058 7.22299 24.9378Q7.27275 24.8177 7.33406 24.703Q7.39536 24.5883 7.46761 24.4802Q7.53986 24.3721 7.62236 24.2715Q7.70486 24.171 7.79682 24.079Q7.88877 23.9871 7.9893 23.9046Q8.08983 23.8221 8.19795 23.7498Q8.30608 23.6776 8.42077 23.6163Q8.53546 23.555 8.65561 23.5052Q8.77576 23.4554 8.9002 23.4177Q9.02465 23.3799 9.1522 23.3546Q9.27975 23.3292 9.40917 23.3165Q9.53859 23.3037 9.66863 23.3037Z" id="Rectangle-2-Copy-2" fill="#FFFFFF" fill-rule="evenodd" stroke="none" />
  </g>
</svg>