<?xml version="1.0" encoding="utf-8"?>
<svg width="33.09961px" height="29.54309px" viewBox="0 0 33.09961 29.54309" version="1.1" xmlns:xlink="http://www.w3.org/1999/xlink" xmlns="http://www.w3.org/2000/svg">
  <g id="loop">
    <path d="M12.2357 0C5.4781 0 0 5.4781 0 12.2357C0 18.9933 5.4781 24.4714 12.2357 24.4714C18.9933 24.4714 24.4714 18.9933 24.4714 12.2357C24.4714 5.4781 18.9933 0 12.2357 0ZM12.2358 2.82361C7.03765 2.82361 2.82373 7.03753 2.82373 12.2357C2.82373 17.4338 7.03765 21.6477 12.2358 21.6477C17.4339 21.6477 21.6479 17.4338 21.6479 12.2357C21.6479 7.03753 17.4339 2.82361 12.2358 2.82361Z" id="Ellipse-Difference" fill="#FFFFFF" fill-rule="evenodd" stroke="none" />
    <path d="M26.61 19.7715L30.9375 23.4028Q31.0438 23.4919 31.1407 23.591Q31.2377 23.6901 31.3245 23.7983Q31.4113 23.9064 31.4871 24.0226Q31.5628 24.1387 31.6269 24.2617Q31.6909 24.3847 31.7426 24.5134Q31.7942 24.642 31.833 24.7752Q31.8718 24.9083 31.8974 25.0446Q31.923 25.1809 31.9351 25.319Q31.9471 25.4571 31.9456 25.5958Q31.9441 25.7345 31.929 25.8723Q31.9139 26.0101 31.8854 26.1458Q31.8569 26.2815 31.8152 26.4138Q31.7735 26.546 31.719 26.6736Q31.6645 26.8011 31.5978 26.9227Q31.5312 27.0442 31.4529 27.1587Q31.3746 27.2731 31.2854 27.3794L31.2842 27.3809Q31.195 27.4871 31.0959 27.5841Q30.9968 27.6811 30.8886 27.7679Q30.7805 27.8546 30.6644 27.9304Q30.5482 28.0062 30.4252 28.0702Q30.3022 28.1343 30.1736 28.1859Q30.0449 28.2376 29.9118 28.2764Q29.7786 28.3152 29.6423 28.3408Q29.5061 28.3663 29.3679 28.3784Q29.2298 28.3905 29.0911 28.389Q28.9525 28.3875 28.8146 28.3724Q28.6768 28.3573 28.5411 28.3287Q28.4054 28.3002 28.2731 28.2585Q28.1409 28.2168 28.0134 28.1624Q27.8858 28.1079 27.7643 28.0412Q27.6427 27.9745 27.5283 27.8962Q27.4138 27.8179 27.3076 27.7288L22.98 24.0976Q22.8738 24.0084 22.7768 23.9093Q22.6799 23.8102 22.5931 23.702Q22.5063 23.5939 22.4305 23.4778Q22.3547 23.3616 22.2907 23.2386Q22.2267 23.1157 22.175 22.987Q22.1233 22.8583 22.0845 22.7252Q22.0457 22.592 22.0202 22.4558Q21.9946 22.3195 21.9825 22.1813Q21.9704 22.0432 21.9719 21.9045Q21.9735 21.7659 21.9886 21.628Q22.0037 21.4902 22.0322 21.3545Q22.0607 21.2188 22.1024 21.0865Q22.1441 20.9543 22.1986 20.8268Q22.253 20.6992 22.3197 20.5777Q22.3864 20.4561 22.4647 20.3417Q22.543 20.2272 22.6321 20.121L22.6334 20.1195Q22.7226 20.0132 22.8217 19.9163Q22.9208 19.8193 23.0289 19.7325Q23.1371 19.6457 23.2532 19.5699Q23.3693 19.4941 23.4923 19.4301Q23.6153 19.3661 23.744 19.3144Q23.8727 19.2628 24.0058 19.2239Q24.1389 19.1851 24.2752 19.1596Q24.4115 19.134 24.5497 19.1219Q24.6878 19.1098 24.8265 19.1114Q24.9651 19.1129 25.103 19.128Q25.2408 19.1431 25.3765 19.1716Q25.5122 19.2001 25.6444 19.2418Q25.7767 19.2835 25.9042 19.338Q26.0317 19.3924 26.1533 19.4591Q26.2749 19.5258 26.3893 19.6041Q26.5038 19.6824 26.61 19.7715Z" id="Rectangle-2" fill="#FFFFFF" fill-rule="evenodd" stroke="none" />
  </g>
</svg>