<?xml version="1.0" encoding="utf-8"?>
<svg width="303.99976px" height="324.19983px" viewBox="0 0 303.99976 324.19983" version="1.1" xmlns:xlink="http://www.w3.org/1999/xlink" xmlns="http://www.w3.org/2000/svg">
  <g id="Group-4">
    <g stroke="#FF2F2F" stroke-opacity="0.1764706" stroke-width="4" id="1" fill="#FF2F2F" fill-opacity="0" transform="translate(0 27.19983)">
      <path d="M35.868 233.9L35.868 77.74L52.948 94.82L1.708 94.82L1.708 63.1L75.396 63.1L75.396 233.9L35.868 233.9Z" />
    </g>
    <g stroke="#FF2F2F" stroke-opacity="0.1764706" stroke-width="4" id="er" fill="#FF2F2F" fill-opacity="0" transform="translate(95.999756 0)">
      <path d="M34.79 182.612Q48.412 189.668 66.444 189.668Q80.752 189.668 91.728 185.258Q102.704 180.848 109.956 172.616L93.688 154.976Q88.396 160.072 82.026 162.62Q75.656 165.168 67.228 165.168Q57.82 165.168 50.862 161.738Q43.904 158.308 40.082 151.742Q38.0055 148.175 37.0572 144L116.816 144Q117.012 142.04 117.208 139.786Q117.404 137.532 117.404 135.768Q117.404 118.716 110.152 106.466Q102.9 94.216 90.454 87.65Q78.008 81.084 62.524 81.084Q46.452 81.084 33.712 88.042Q20.972 95 13.622 107.25Q6.272 119.5 6.272 135.376Q6.272 151.056 13.72 163.306Q21.168 175.556 34.79 182.612ZM36.6775 126.164Q37.4394 121.235 39.592 117.246Q42.924 111.072 48.902 107.642Q54.88 104.212 62.72 104.212Q70.56 104.212 76.44 107.642Q82.32 111.072 85.652 117.148Q87.8637 121.181 88.6073 126.164L36.6775 126.164ZM166.992 82.652L137.788 82.652L137.788 188.1L168.364 188.1L168.364 138.316Q168.364 123.224 176.106 116.07Q183.848 108.916 196.392 108.916Q198.156 108.916 199.724 109.014Q201.292 109.112 203.252 109.308L203.252 81.084Q188.356 81.084 177.968 86.866Q171.314 90.5697 166.992 96.485L166.992 82.652Z" />
    </g>
  </g>
</svg>