<?xml version="1.0" encoding="utf-8"?>
<svg width="269.99976px" height="324.19983px" viewBox="0 0 269.99976 324.19983" version="1.1" xmlns:xlink="http://www.w3.org/1999/xlink" xmlns="http://www.w3.org/2000/svg">
  <g id="Group-4">
    <g stroke="#FF2F2F" stroke-opacity="0.1764706" stroke-width="4" id="3" fill="#FF2F2F" fill-opacity="0" transform="translate(0 27.19983)">
      <path d="M64.904 236.828Q47.092 236.828 29.524 232.07Q11.956 227.312 -0.244 218.528L15.128 188.272Q24.888 195.348 37.82 199.496Q50.752 203.644 63.928 203.644Q78.812 203.644 87.352 197.788Q95.892 191.932 95.892 181.684Q95.892 171.924 88.328 166.312Q80.764 160.7 63.928 160.7L45.872 160.7L45.872 134.592L93.452 80.668L97.844 94.82L8.296 94.82L8.296 63.1L127.856 63.1L127.856 88.72L80.52 142.644L60.512 131.176L71.98 131.176Q103.456 131.176 119.56 145.328Q135.664 159.48 135.664 181.684Q135.664 196.08 128.1 208.646Q120.536 221.212 104.92 229.02Q89.304 236.828 64.904 236.828Z" />
    </g>
    <g stroke="#FF2F2F" stroke-opacity="0.1764706" stroke-width="4" id="e" fill="#FF2F2F" fill-opacity="0" transform="translate(145.99976 0)">
      <path d="M66.444 189.668Q48.412 189.668 34.79 182.612Q21.168 175.556 13.72 163.306Q6.272 151.056 6.272 135.376Q6.272 119.5 13.622 107.25Q20.972 95 33.712 88.042Q46.452 81.084 62.524 81.084Q78.008 81.084 90.454 87.65Q102.9 94.216 110.152 106.466Q117.404 118.716 117.404 135.768Q117.404 137.532 117.208 139.786Q117.012 142.04 116.816 144L31.164 144L31.164 126.164L100.744 126.164L88.984 131.456Q88.984 123.224 85.652 117.148Q82.32 111.072 76.44 107.642Q70.56 104.212 62.72 104.212Q54.88 104.212 48.902 107.642Q42.924 111.072 39.592 117.246Q36.26 123.42 36.26 131.848L36.26 136.552Q36.26 145.176 40.082 151.742Q43.904 158.308 50.862 161.738Q57.82 165.168 67.228 165.168Q75.656 165.168 82.026 162.62Q88.396 160.072 93.688 154.976L109.956 172.616Q102.704 180.848 91.728 185.258Q80.752 189.668 66.444 189.668Z" />
    </g>
  </g>
</svg>